<svg xmlns="http://www.w3.org/2000/svg" viewBox="0 0 64 61" width="64" height="61">
	<style>
		tspan { white-space:pre }
		.shp0 { fill: #00a2ff } 
	</style>
	<path id="" class="shp0" d="M62.59 29.66C62.59 30.31 62.49 30.92 62.3 31.48C62.12 32.05 61.83 32.56 61.46 33.03C61.09 33.5 60.66 33.87 60.2 34.16C59.73 34.44 59.21 34.67 58.65 34.86C58.93 35.33 59.16 35.82 59.35 36.34C59.54 36.85 59.63 37.44 59.63 38.09C59.63 38.66 59.54 39.22 59.35 39.78C59.16 40.34 58.93 40.86 58.65 41.33C58.27 41.7 57.85 42.06 57.38 42.38C56.91 42.71 56.44 42.97 55.98 43.16C56.26 43.63 56.49 44.14 56.68 44.7C56.87 45.27 56.96 45.83 56.96 46.39C56.96 47.05 56.87 47.63 56.68 48.15C56.49 48.66 56.26 49.16 55.98 49.62C55.6 50.1 55.18 50.49 54.71 50.82C54.24 51.15 53.73 51.36 53.16 51.45C53.54 51.92 53.82 52.42 54.01 52.93C54.19 53.45 54.29 54.03 54.29 54.69C54.29 55.34 54.15 56 53.87 56.66C53.59 57.31 53.21 57.88 52.74 58.34C52.18 58.81 51.57 59.19 50.91 59.47C50.26 59.75 49.55 59.89 48.8 59.89L30.24 59.89C29.59 59.89 28.84 59.8 27.99 59.61C27.15 59.42 26.26 59.14 25.32 58.77C24.38 58.48 23.44 58.13 22.51 57.71C21.57 57.29 20.63 56.89 19.7 56.52C18.57 56.05 17.47 55.58 16.39 55.11C15.31 54.64 14.54 54.41 14.07 54.41L1.27 54.41L1.27 26.98L2.4 26.84C7.74 26.84 11.4 26.84 13.37 26.84C14.21 26.84 14.98 26.75 15.69 26.56C16.39 26.38 17.12 26 17.87 25.44C18.71 24.97 19.67 24.31 20.75 23.47C21.83 22.62 23.12 21.59 24.62 20.37C27.52 17.94 29.23 14.89 29.75 11.23C30.26 7.58 30.52 5.47 30.52 4.91C30.52 4.34 30.66 3.81 30.95 3.29C31.23 2.77 31.6 2.37 32.07 2.09C32.54 1.72 33.03 1.46 33.55 1.32C34.06 1.18 34.55 1.11 35.02 1.11C35.77 1.11 36.52 1.2 37.27 1.39C38.02 1.58 38.73 2 39.38 2.66C40.04 3.31 40.55 4.18 40.93 5.26C41.3 6.34 41.49 7.77 41.49 9.55C41.49 11.14 41.37 12.66 41.14 14.12C40.91 15.57 40.6 16.95 40.23 18.27C39.95 19.58 39.59 20.77 39.17 21.85C38.75 22.93 38.4 23.84 38.12 24.59L57.24 24.59C58.09 24.59 58.81 24.71 59.42 24.95C60.03 25.18 60.62 25.53 61.18 26C61.65 26.47 62 27.01 62.23 27.62C62.47 28.23 62.59 28.91 62.59 29.66L62.59 29.66L62.59 29.66ZM57.24 32.61C57.71 32.61 58.13 32.54 58.51 32.4C58.88 32.26 59.16 32.05 59.35 31.77C59.63 31.48 59.87 31.18 60.05 30.85C60.24 30.52 60.34 30.13 60.34 29.66C60.34 28.91 60.05 28.25 59.49 27.69C58.93 27.12 58.18 26.84 57.24 26.84L48.8 26.84C48.8 26.94 48.8 26.94 48.8 26.84L34.32 26.84L35.16 25.16C37.79 18.69 39.1 13.48 39.1 9.55C39.1 6.45 38.59 4.65 37.55 4.13C36.52 3.62 35.68 3.36 35.02 3.36C34.74 3.36 34.32 3.5 33.76 3.78C33.2 4.06 32.91 4.44 32.91 4.91C32.91 5.47 32.87 6.41 32.77 7.72C32.68 9.03 32.4 10.53 31.93 12.22C31.46 13.91 30.78 15.64 29.89 17.42C29 19.2 27.76 20.75 26.16 22.06C24.57 23.38 23.23 24.48 22.16 25.37C21.08 26.26 20.07 26.98 19.13 27.55C18.19 28.11 17.26 28.53 16.32 28.81C15.38 29.09 14.4 29.23 13.37 29.23C12.62 29.23 11.8 29.23 10.91 29.23C10.01 29.23 9.1 29.23 8.16 29.23C7.32 29.23 6.5 29.23 5.7 29.23C4.91 29.23 4.23 29.23 3.66 29.23L3.66 52.02L14.07 52.02C14.72 52.02 15.59 52.23 16.67 52.65C17.75 53.07 19.08 53.61 20.68 54.27C21.43 54.64 22.25 55.04 23.14 55.46C24.03 55.88 24.9 56.23 25.74 56.52C26.68 56.8 27.52 57.06 28.27 57.29C29.02 57.52 29.68 57.64 30.24 57.64L45.85 57.64L48.8 57.64C49.27 57.64 49.69 57.55 50.07 57.36C50.44 57.17 50.77 56.94 51.05 56.66C51.34 56.47 51.55 56.19 51.69 55.81C51.83 55.44 51.9 55.06 51.9 54.69C51.9 54.22 51.83 53.82 51.69 53.49C51.55 53.16 51.34 52.86 51.05 52.58C50.77 52.3 50.44 52.09 50.07 51.95C49.69 51.8 49.27 51.73 48.8 51.73L48.52 51.73L48.52 49.34L51.76 49.34C52.13 49.34 52.51 49.27 52.88 49.13C53.26 48.99 53.59 48.78 53.87 48.5C54.05 48.22 54.24 47.89 54.43 47.52C54.62 47.14 54.71 46.77 54.71 46.39C54.71 46.02 54.62 45.64 54.43 45.27C54.24 44.89 54.05 44.56 53.87 44.28C53.59 44.09 53.26 43.91 52.88 43.72C52.51 43.53 52.13 43.44 51.76 43.44L50.77 43.44L50.77 41.05L54.29 41.05C54.66 41.05 55.04 40.98 55.41 40.84C55.79 40.7 56.12 40.48 56.4 40.2C56.68 39.92 56.91 39.59 57.1 39.22C57.29 38.85 57.38 38.47 57.38 38.09C57.38 37.63 57.29 37.2 57.1 36.83C56.91 36.45 56.68 36.17 56.4 35.98C56.12 35.7 55.79 35.47 55.41 35.28C55.04 35.09 54.66 35 54.29 35L53.16 35L53.16 32.61L57.24 32.61L57.24 32.61L57.24 32.61L57.24 32.61L57.24 32.61Z" />
</svg>