<svg xmlns="http://www.w3.org/2000/svg" viewBox="0 0 60 59" width="60" height="59">
	<style>
		tspan { white-space:pre }
		.shp0 { fill: #5474fd } 
	</style>
	<path id="" class="shp0" d="M58.27 54.81L55.31 57.77L39 41.45C38.06 42.3 37.03 43.05 35.91 43.7C34.78 44.36 33.61 44.92 32.39 45.39C31.17 45.86 29.88 46.21 28.52 46.45C27.16 46.68 25.83 46.8 24.52 46.8C21.33 46.8 18.35 46.19 15.59 44.97C12.82 43.75 10.4 42.11 8.34 40.05C6.28 37.99 4.66 35.57 3.49 32.8C2.32 30.04 1.73 27.11 1.73 24.02C1.73 20.83 2.32 17.85 3.49 15.09C4.66 12.32 6.28 9.91 8.34 7.84C10.4 5.78 12.82 4.17 15.59 2.99C18.35 1.82 21.33 1.23 24.52 1.23C27.61 1.23 30.54 1.82 33.3 2.99C36.07 4.17 38.48 5.78 40.55 7.84C42.61 9.91 44.25 12.32 45.47 15.09C46.69 17.85 47.3 20.83 47.3 24.02C47.3 25.33 47.18 26.67 46.95 28.02C46.71 29.38 46.36 30.67 45.89 31.89C45.42 33.11 44.86 34.28 44.2 35.41C43.55 36.53 42.8 37.56 41.95 38.5L58.27 54.81L58.27 54.81ZM4.12 24.02C4.12 26.83 4.64 29.45 5.67 31.89C6.7 34.33 8.15 36.48 10.03 38.36C11.91 40.24 14.09 41.71 16.57 42.79C19.05 43.87 21.7 44.41 24.52 44.41C27.33 44.41 29.95 43.87 32.39 42.79C34.83 41.71 36.98 40.24 38.86 38.36C40.73 36.48 42.21 34.33 43.29 31.89C44.37 29.45 44.91 26.83 44.91 24.02C44.91 21.2 44.37 18.56 43.29 16.07C42.21 13.59 40.73 11.41 38.86 9.53C36.98 7.66 34.83 6.2 32.39 5.17C29.95 4.14 27.33 3.62 24.52 3.62C21.7 3.62 19.05 4.14 16.57 5.17C14.09 6.2 11.91 7.66 10.03 9.53C8.15 11.41 6.7 13.59 5.67 16.07C4.64 18.56 4.12 21.2 4.12 24.02L4.12 24.02Z" />
</svg>