<svg xmlns="http://www.w3.org/2000/svg" viewBox="0 0 22 24" width="22" height="24">
	<style>
		tspan { white-space:pre }
		.shp0 { fill: #ffffff } 
	</style>
	<path id="" class="shp0" d="M20.99 20.98L19.95 22.03L14.18 16.24C13.85 16.54 13.49 16.81 13.09 17.04C12.69 17.27 12.28 17.47 11.85 17.64C11.41 17.81 10.96 17.93 10.48 18.01C10 18.1 9.52 18.14 9.06 18.14C7.93 18.14 6.88 17.92 5.9 17.49C4.93 17.06 4.07 16.48 3.34 15.74C2.61 15.01 2.04 14.16 1.63 13.18C1.21 12.2 1.01 11.16 1.01 10.06C1.01 8.93 1.21 7.88 1.63 6.89C2.04 5.91 2.61 5.06 3.34 4.33C4.07 3.6 4.93 3.02 5.9 2.61C6.88 2.19 7.93 1.98 9.06 1.98C10.15 1.98 11.19 2.19 12.17 2.61C13.15 3.02 14 3.6 14.73 4.33C15.46 5.06 16.04 5.91 16.47 6.89C16.9 7.88 17.11 8.93 17.11 10.06C17.11 10.53 17.07 11 16.99 11.48C16.91 11.96 16.78 12.42 16.62 12.85C16.45 13.29 16.25 13.7 16.02 14.1C15.79 14.5 15.52 14.86 15.23 15.2L20.99 20.98L20.99 20.98ZM1.85 10.06C1.85 11.06 2.03 11.99 2.4 12.85C2.76 13.72 3.28 14.48 3.94 15.15C4.6 15.81 5.37 16.33 6.25 16.72C7.13 17.1 8.07 17.29 9.06 17.29C10.06 17.29 10.98 17.1 11.85 16.72C12.71 16.33 13.47 15.81 14.13 15.15C14.79 14.48 15.32 13.72 15.7 12.85C16.08 11.99 16.27 11.06 16.27 10.06C16.27 9.06 16.08 8.13 15.7 7.24C15.32 6.36 14.79 5.59 14.13 4.93C13.47 4.26 12.71 3.75 11.85 3.38C10.98 3.01 10.06 2.83 9.06 2.83C8.07 2.83 7.13 3.01 6.25 3.38C5.37 3.75 4.6 4.26 3.94 4.93C3.28 5.59 2.76 6.36 2.4 7.24C2.03 8.13 1.85 9.06 1.85 10.06L1.85 10.06Z" />
</svg>