<svg xmlns="http://www.w3.org/2000/svg" width="20" height="20" viewBox="0 0 20 20"><g><g><path fill="#fff" d="M18.949 20.027l-5.767-5.784a6.59 6.59 0 0 1-1.094.798 8.525 8.525 0 0 1-1.243.598 7.125 7.125 0 0 1-1.367.374c-.481.083-.953.125-1.417.125a7.716 7.716 0 0 1-3.157-.648 8.32 8.32 0 0 1-2.56-1.745 8.001 8.001 0 0 1-1.715-2.568 7.912 7.912 0 0 1-.622-3.116 8.041 8.041 0 0 1 2.337-5.734A7.998 7.998 0 0 1 8.06-.016c1.094 0 2.13.208 3.107.623.978.416 1.831.99 2.56 1.72a8.387 8.387 0 0 1 1.74 2.568c.431.98.647 2.036.647 3.166 0 .466-.042.94-.124 1.42-.083.483-.208.94-.373 1.372a8.704 8.704 0 0 1-.597 1.246 6.604 6.604 0 0 1-.795 1.097l5.767 5.784zm-17.55-9.174a7.144 7.144 0 0 0 1.541 2.293 7.386 7.386 0 0 0 2.312 1.57 6.959 6.959 0 0 0 2.81.574c.993 0 1.92-.19 2.783-.573a7.485 7.485 0 0 0 2.287-1.57 7.518 7.518 0 0 0 1.566-2.294c.38-.864.572-1.795.572-2.792 0-.997-.191-1.936-.572-2.817a7.448 7.448 0 0 0-1.566-2.318 7.158 7.158 0 0 0-2.287-1.546A7.06 7.06 0 0 0 8.061.83a7.24 7.24 0 0 0-2.809.549 7.087 7.087 0 0 0-3.853 3.864 7.283 7.283 0 0 0-.547 2.817 7.1 7.1 0 0 0 .547 2.792z"/></g></g></svg>